<svg width="23" height="18" viewBox="0 0 23 18" fill="none" xmlns="http://www.w3.org/2000/svg">
<path d="M16.7734 5.39719V4.875C16.7734 2.52375 13.2269 0.75 8.52344 0.75C3.82 0.75 0.273438 2.52375 0.273438 4.875V8.625C0.273438 10.5834 2.73438 12.1397 6.27344 12.6056V13.125C6.27344 15.4762 9.82 17.25 14.5234 17.25C19.2269 17.25 22.7734 15.4762 22.7734 13.125V9.375C22.7734 7.43437 20.3903 5.87625 16.7734 5.39719ZM21.2734 9.375C21.2734 10.6144 18.3869 12 14.5234 12C14.1737 12 13.8269 11.9878 13.4847 11.9653C15.5069 11.2284 16.7734 10.0312 16.7734 8.625V6.91313C19.5737 7.33031 21.2734 8.46281 21.2734 9.375ZM6.27344 11.0859V8.85563C7.01948 8.95283 7.77109 9.00106 8.52344 9C9.27579 9.00106 10.0274 8.95283 10.7734 8.85563V11.0859C10.0285 11.196 9.27645 11.2508 8.52344 11.25C7.77042 11.2508 7.01837 11.196 6.27344 11.0859ZM15.2734 7.30594V8.625C15.2734 9.41156 14.11 10.2562 12.2734 10.7691V8.57812C13.4838 8.28469 14.5084 7.84781 15.2734 7.30594ZM8.52344 2.25C12.3869 2.25 15.2734 3.63562 15.2734 4.875C15.2734 6.11438 12.3869 7.5 8.52344 7.5C4.66 7.5 1.77344 6.11438 1.77344 4.875C1.77344 3.63562 4.66 2.25 8.52344 2.25ZM1.77344 8.625V7.30594C2.53844 7.84781 3.56313 8.28469 4.77344 8.57812V10.7691C2.93687 10.2562 1.77344 9.41156 1.77344 8.625ZM7.77344 13.125V12.7341C8.02 12.7434 8.26937 12.75 8.52344 12.75C8.88719 12.75 9.2425 12.7378 9.59125 12.7172C9.97868 12.8559 10.3733 12.9736 10.7734 13.0697V15.2691C8.93688 14.7562 7.77344 13.9116 7.77344 13.125ZM12.2734 15.5859V13.35C13.0192 13.4503 13.7709 13.5004 14.5234 13.5C15.2758 13.5011 16.0274 13.4528 16.7734 13.3556V15.5859C15.2814 15.8047 13.7655 15.8047 12.2734 15.5859ZM18.2734 15.2691V13.0781C19.4837 12.7847 20.5084 12.3478 21.2734 11.8059V13.125C21.2734 13.9116 20.11 14.7562 18.2734 15.2691Z" fill="#2A4CFF"/>
</svg>
