<svg width="174" height="29" viewBox="0 0 174 29" fill="none" xmlns="http://www.w3.org/2000/svg">
<path d="M45.9925 7.73687C46.5471 7.73687 47.0538 7.85421 47.5125 8.08887C47.9818 8.31287 48.3498 8.63287 48.6165 9.04887C48.8938 9.46487 49.0325 9.92887 49.0325 10.4409C49.0325 11.7955 48.4191 12.6489 47.1925 13.0009V13.0649C48.5898 13.3849 49.2885 14.3022 49.2885 15.8169C49.2885 16.3929 49.1445 16.9049 48.8565 17.3529C48.5791 17.7902 48.1951 18.1315 47.7045 18.3769C47.2138 18.6222 46.6751 18.7449 46.0885 18.7449H38.6645V7.73687H45.9925ZM42.2005 12.0249H44.6325C44.8671 12.0249 45.0591 11.9449 45.2085 11.7849C45.3685 11.6142 45.4485 11.4062 45.4485 11.1609V11.0009C45.4485 10.7662 45.3685 10.5689 45.2085 10.4089C45.0485 10.2382 44.8565 10.1529 44.6325 10.1529H42.2005V12.0249ZM42.2005 16.1849H44.8885C45.1231 16.1849 45.3151 16.1049 45.4645 15.9449C45.6245 15.7742 45.7045 15.5662 45.7045 15.3209V15.1609C45.7045 14.9155 45.6245 14.7129 45.4645 14.5529C45.3151 14.3822 45.1231 14.2969 44.8885 14.2969H42.2005V16.1849ZM55.2616 10.1049C56.7443 10.1049 57.9069 10.4835 58.7496 11.2409C59.6029 11.9875 60.0296 13.0809 60.0296 14.5209C60.0296 15.9609 59.6029 17.0595 58.7496 17.8169C57.9069 18.5635 56.7443 18.9369 55.2616 18.9369C53.7789 18.9369 52.6163 18.5635 51.7736 17.8169C50.9309 17.0702 50.5096 15.9715 50.5096 14.5209C50.5096 13.0702 50.9309 11.9715 51.7736 11.2249C52.6163 10.4782 53.7789 10.1049 55.2616 10.1049ZM55.2616 12.2649C54.2163 12.2649 53.6936 12.8675 53.6936 14.0729V14.9849C53.6936 16.1795 54.2163 16.7769 55.2616 16.7769C56.3176 16.7769 56.8456 16.1795 56.8456 14.9849V14.0729C56.8456 12.8675 56.3176 12.2649 55.2616 12.2649ZM67.6935 18.7449L67.4855 17.4649C67.1548 17.9235 66.7175 18.2862 66.1735 18.5529C65.6401 18.8089 65.0748 18.9369 64.4775 18.9369C63.4961 18.9369 62.7601 18.6649 62.2695 18.1209C61.7788 17.5769 61.5335 16.7929 61.5335 15.7689V10.2969H64.7175V15.3849C64.7175 15.7475 64.8081 16.0409 64.9895 16.2649C65.1815 16.4782 65.4481 16.5849 65.7895 16.5849C66.1841 16.5849 66.5041 16.4569 66.7495 16.2009C66.9948 15.9449 67.1175 15.6302 67.1175 15.2569V10.2969H70.3015V18.7449H67.6935ZM78.0613 10.1049C79.0427 10.1049 79.7787 10.3769 80.2693 10.9209C80.76 11.4649 81.0053 12.2489 81.0053 13.2729V18.7449H77.8213V13.6569C77.8213 13.2942 77.7253 13.0062 77.5333 12.7929C77.352 12.5689 77.0907 12.4569 76.7493 12.4569C76.3547 12.4569 76.0347 12.5849 75.7893 12.8409C75.544 13.0969 75.4213 13.4115 75.4213 13.7849V18.7449H72.2373V10.2969H74.8453L75.0533 11.5769C75.384 11.1289 75.816 10.7715 76.3493 10.5049C76.8933 10.2382 77.464 10.1049 78.0613 10.1049ZM88.5412 10.2969V12.4569H86.7492V15.6729C86.7492 16.0569 86.8132 16.3395 86.9412 16.5209C87.0692 16.6915 87.3039 16.7769 87.6452 16.7769H88.5412V18.6489C88.2852 18.7342 87.9545 18.8035 87.5492 18.8569C87.1439 18.9102 86.7919 18.9369 86.4932 18.9369C85.5545 18.9369 84.8292 18.7662 84.3172 18.4249C83.8159 18.0835 83.5652 17.5022 83.5652 16.6809V12.4569H82.3812V10.2969H83.6932L84.3812 7.73687H86.7492V10.2969H88.5412ZM95.8266 18.4889C95.3893 19.6729 94.8506 20.5689 94.2106 21.1769C93.5813 21.7955 92.6959 22.1049 91.5546 22.1049C90.8613 22.1049 90.2479 22.0089 89.7146 21.8169V19.9129H90.9946C91.7946 19.9129 92.2693 19.5235 92.4186 18.7449L89.0586 10.2969H92.4826L94.0986 15.9129H94.2106L95.6986 10.2969H98.8346L95.8266 18.4889ZM107.352 7.73687C107.907 7.73687 108.413 7.85421 108.872 8.08887C109.341 8.31287 109.709 8.63287 109.976 9.04887C110.253 9.46487 110.392 9.92887 110.392 10.4409C110.392 11.7955 109.779 12.6489 108.552 13.0009V13.0649C109.949 13.3849 110.648 14.3022 110.648 15.8169C110.648 16.3929 110.504 16.9049 110.216 17.3529C109.939 17.7902 109.555 18.1315 109.064 18.3769C108.573 18.6222 108.035 18.7449 107.448 18.7449H100.024V7.73687H107.352ZM103.56 12.0249H105.992C106.227 12.0249 106.419 11.9449 106.568 11.7849C106.728 11.6142 106.808 11.4062 106.808 11.1609V11.0009C106.808 10.7662 106.728 10.5689 106.568 10.4089C106.408 10.2382 106.216 10.1529 105.992 10.1529H103.56V12.0249ZM103.56 16.1849H106.248C106.483 16.1849 106.675 16.1049 106.824 15.9449C106.984 15.7742 107.064 15.5662 107.064 15.3209V15.1609C107.064 14.9155 106.984 14.7129 106.824 14.5529C106.675 14.3822 106.483 14.2969 106.248 14.2969H103.56V16.1849ZM116.429 10.1049C117.72 10.1049 118.77 10.3235 119.581 10.7609C120.392 11.1875 120.797 11.8862 120.797 12.8569V16.1529C120.797 16.3342 120.84 16.4835 120.925 16.6009C121.01 16.7182 121.138 16.7769 121.309 16.7769H121.885V18.6169C121.853 18.6382 121.768 18.6755 121.629 18.7289C121.501 18.7715 121.314 18.8142 121.069 18.8569C120.824 18.9102 120.541 18.9369 120.221 18.9369C119.602 18.9369 119.09 18.8462 118.685 18.6649C118.29 18.4729 118.018 18.2115 117.869 17.8809C117.464 18.2009 117.01 18.4569 116.509 18.6489C116.008 18.8409 115.421 18.9369 114.749 18.9369C112.765 18.9369 111.773 18.1475 111.773 16.5689C111.773 15.7475 111.992 15.1235 112.429 14.6969C112.877 14.2595 113.517 13.9609 114.349 13.8009C115.181 13.6409 116.269 13.5609 117.613 13.5609V13.1449C117.613 12.8142 117.496 12.5635 117.261 12.3929C117.037 12.2222 116.744 12.1369 116.381 12.1369C116.05 12.1369 115.762 12.1955 115.517 12.3129C115.282 12.4302 115.165 12.6169 115.165 12.8729V12.9369H112.029C112.018 12.8835 112.013 12.8089 112.013 12.7129C112.013 11.9129 112.392 11.2782 113.149 10.8089C113.917 10.3395 115.01 10.1049 116.429 10.1049ZM117.613 15.0649C116.706 15.0649 116.034 15.1662 115.597 15.3689C115.17 15.5609 114.957 15.8222 114.957 16.1529C114.957 16.6862 115.32 16.9529 116.045 16.9529C116.461 16.9529 116.824 16.8409 117.133 16.6169C117.453 16.3929 117.613 16.1155 117.613 15.7849V15.0649ZM128.061 10.0889C128.306 10.0889 128.525 10.1209 128.717 10.1849C128.909 10.2382 129.005 10.2702 129.005 10.2809V12.9529H127.981C127.32 12.9529 126.84 13.1235 126.541 13.4649C126.253 13.8062 126.109 14.3129 126.109 14.9849V18.7449H122.925V10.2969H125.533L125.741 11.5769C125.933 11.0862 126.237 10.7182 126.653 10.4729C127.069 10.2169 127.538 10.0889 128.061 10.0889ZM139.944 8.71287C139.944 9.36354 139.779 9.86487 139.448 10.2169C139.128 10.5689 138.643 10.8302 137.992 11.0009C138.302 11.2355 138.542 11.5129 138.712 11.8329C138.894 12.1422 138.984 12.4729 138.984 12.8249C138.984 13.7209 138.643 14.3982 137.96 14.8569C137.288 15.3155 136.446 15.5449 135.432 15.5449H134.216C133.544 15.5449 133.208 15.6995 133.208 16.0089C133.208 16.1582 133.283 16.2809 133.432 16.3769C133.582 16.4622 133.843 16.5049 134.216 16.5049H137.096C138.035 16.5049 138.744 16.7502 139.224 17.2409C139.704 17.7315 139.944 18.3875 139.944 19.2089C139.944 19.8169 139.784 20.3395 139.464 20.7769C139.144 21.2142 138.712 21.5449 138.168 21.7689C137.624 21.9929 137.032 22.1049 136.392 22.1049H131.688C131.304 22.1049 130.947 22.0142 130.616 21.8329C130.296 21.6515 130.04 21.4009 129.848 21.0809C129.656 20.7715 129.56 20.4249 129.56 20.0409C129.56 19.6249 129.688 19.2462 129.944 18.9049C130.2 18.5742 130.52 18.3235 130.904 18.1529C130.648 17.9715 130.446 17.7529 130.296 17.4969C130.147 17.2409 130.072 16.9635 130.072 16.6649C130.072 16.2489 130.227 15.8755 130.536 15.5449C130.846 15.2035 131.23 14.9742 131.688 14.8569C131.272 14.5902 130.942 14.2862 130.696 13.9449C130.451 13.5929 130.328 13.2249 130.328 12.8409C130.328 11.8595 130.723 11.1609 131.512 10.7449C132.312 10.3182 133.368 10.1049 134.68 10.1049C135.256 10.1049 135.72 10.1369 136.072 10.2009C136.595 9.87021 136.931 9.57154 137.08 9.30487C137.24 9.02754 137.32 8.83021 137.32 8.71287H139.944ZM134.648 11.7689C134.296 11.7689 134.008 11.8595 133.784 12.0409C133.56 12.2222 133.448 12.4835 133.448 12.8249C133.448 13.1769 133.55 13.4435 133.752 13.6249C133.966 13.7955 134.264 13.8809 134.648 13.8809C135.032 13.8809 135.331 13.7955 135.544 13.6249C135.768 13.4435 135.88 13.1769 135.88 12.8249C135.88 12.4729 135.768 12.2115 135.544 12.0409C135.331 11.8595 135.032 11.7689 134.648 11.7689ZM133.416 18.7449C133.171 18.7449 132.968 18.8089 132.808 18.9369C132.659 19.0755 132.584 19.2675 132.584 19.5129C132.584 19.7582 132.664 19.9555 132.824 20.1049C132.984 20.2542 133.182 20.3289 133.416 20.3289H135.912C136.147 20.3289 136.344 20.2542 136.504 20.1049C136.675 19.9662 136.76 19.7742 136.76 19.5289C136.76 19.2835 136.68 19.0915 136.52 18.9529C136.36 18.8142 136.158 18.7449 135.912 18.7449H133.416ZM145.288 10.1049C146.579 10.1049 147.63 10.3235 148.44 10.7609C149.251 11.1875 149.656 11.8862 149.656 12.8569V16.1529C149.656 16.3342 149.699 16.4835 149.784 16.6009C149.87 16.7182 149.998 16.7769 150.168 16.7769H150.744V18.6169C150.712 18.6382 150.627 18.6755 150.488 18.7289C150.36 18.7715 150.174 18.8142 149.928 18.8569C149.683 18.9102 149.4 18.9369 149.08 18.9369C148.462 18.9369 147.95 18.8462 147.544 18.6649C147.15 18.4729 146.878 18.2115 146.728 17.8809C146.323 18.2009 145.87 18.4569 145.368 18.6489C144.867 18.8409 144.28 18.9369 143.608 18.9369C141.624 18.9369 140.632 18.1475 140.632 16.5689C140.632 15.7475 140.851 15.1235 141.288 14.6969C141.736 14.2595 142.376 13.9609 143.208 13.8009C144.04 13.6409 145.128 13.5609 146.472 13.5609V13.1449C146.472 12.8142 146.355 12.5635 146.12 12.3929C145.896 12.2222 145.603 12.1369 145.24 12.1369C144.91 12.1369 144.622 12.1955 144.376 12.3129C144.142 12.4302 144.024 12.6169 144.024 12.8729V12.9369H140.888C140.878 12.8835 140.872 12.8089 140.872 12.7129C140.872 11.9129 141.251 11.2782 142.008 10.8089C142.776 10.3395 143.87 10.1049 145.288 10.1049ZM146.472 15.0649C145.566 15.0649 144.894 15.1662 144.456 15.3689C144.03 15.5609 143.816 15.8222 143.816 16.1529C143.816 16.6862 144.179 16.9529 144.904 16.9529C145.32 16.9529 145.683 16.8409 145.992 16.6169C146.312 16.3929 146.472 16.1155 146.472 15.7849V15.0649ZM151.896 9.30487V7.14487H155.08V9.30487H151.896ZM151.896 18.7449V10.2969H155.08V18.7449H151.896ZM162.936 10.1049C163.918 10.1049 164.654 10.3769 165.144 10.9209C165.635 11.4649 165.88 12.2489 165.88 13.2729V18.7449H162.696V13.6569C162.696 13.2942 162.6 13.0062 162.408 12.7929C162.227 12.5689 161.966 12.4569 161.624 12.4569C161.23 12.4569 160.91 12.5849 160.664 12.8409C160.419 13.0969 160.296 13.4115 160.296 13.7849V18.7449H157.112V10.2969H159.72L159.928 11.5769C160.259 11.1289 160.691 10.7715 161.224 10.5049C161.768 10.2382 162.339 10.1049 162.936 10.1049Z" fill="#2A4CFF"/>
<g clip-path="url(#clip0_946_1736)">
<path d="M0.451362 13.0808C-0.0897756 12.1128 0.463328 11.3138 3.66628 11.3138C7.78131 11.3138 7.37446 7.75049 8.89151 5.31072C10.1373 3.11559 12.1915 1.43899 14.6512 0.691772C15.0528 2.73932 16.1962 4.21914 17.5457 4.21914C18.8952 4.21914 20.0387 2.73932 20.4402 0.691772C22.8999 1.43899 24.9554 3.11559 26.1999 5.31072C27.7183 7.75049 27.3101 11.3138 31.4265 11.3138C34.6294 11.3138 35.1825 12.1128 34.6414 13.0808C34.293 12.5303 33.3145 12.271 31.5874 12.271C30.8588 12.271 29.815 12.1899 28.9867 11.8057C27.2968 11.0212 26.7304 9.36725 26.2305 7.90605C25.9726 7.15218 25.7279 6.4382 25.3543 5.83856L25.333 5.80266C24.4289 4.20717 23.0847 2.9454 21.4494 2.15431L21.1303 2.00007L20.9973 2.32981C20.266 4.13936 18.9763 5.21898 17.5484 5.21898C16.1204 5.21898 14.8307 4.13936 14.0995 2.32981L13.9665 2.00007L13.6474 2.15431C12.0107 2.9454 10.6678 4.20717 9.76238 5.80399L9.74244 5.83856C9.36882 6.43953 9.12418 7.15218 8.86492 7.90738C8.365 9.36725 7.79993 11.0212 6.10871 11.8057C5.28038 12.1899 4.23666 12.271 3.50806 12.271C1.78094 12.271 0.80237 12.5303 0.454021 13.0808H0.451362ZM21.8469 21.8852C21.585 24.2572 19.4417 25.975 17.0697 25.7131C15.2376 25.511 13.7325 24.1668 13.3243 22.3705C13.2977 22.2575 13.3336 22.1392 13.4174 22.0581C13.5011 21.9769 13.6195 21.945 13.7325 21.9756C14.0569 22.0607 14.392 22.1219 14.7244 22.1591C17.1109 22.4224 19.4377 21.4691 20.9494 19.6076C21.0212 19.5199 21.1316 19.4747 21.2526 19.488C21.3669 19.5039 21.4653 19.5784 21.5118 19.6848C21.8137 20.3735 21.9293 21.1353 21.8469 21.8879V21.8852ZM18.7304 23.607C19.9762 23.0991 20.9415 22.1019 21.202 21.5209C21.214 21.1632 21.1741 20.8056 21.0824 20.4612C19.4324 22.2096 17.0684 23.0845 14.6512 22.8172C14.4771 22.7986 14.3042 22.7734 14.1314 22.7415C14.622 23.9966 15.7734 24.9007 17.1415 25.0509C18.8048 25.2344 20.3325 24.2678 20.9348 22.7893C20.7035 22.9888 19.7741 23.6216 18.7304 23.607ZM34.0298 13.8532C33.4727 14.4157 32.7042 14.9807 31.9876 15.4394C30.7537 16.2292 29.2207 17.249 26.9232 18.0281C26.9086 18.29 26.8886 18.5573 26.8594 18.8352C26.8341 19.0439 26.8009 19.2473 26.7637 19.4454C26.7583 19.4454 26.7544 19.4428 26.749 19.4414C26.2518 19.3431 25.7558 19.3564 25.2825 19.4308C25.7612 19.4654 26.2292 19.5691 26.6374 19.7566C26.656 19.7659 26.6733 19.7765 26.6919 19.7858C26.6546 19.9467 26.6108 20.0996 26.5642 20.2485C26.3688 20.1528 26.1654 20.0836 25.9619 20.0344C25.4687 19.9188 24.9727 19.9148 24.4967 19.9733C24.9727 20.0251 25.4367 20.1435 25.8383 20.3456C26.0377 20.4466 26.2212 20.5689 26.3714 20.7099C26.3781 20.7152 26.3834 20.7218 26.3887 20.7285C26.3302 20.8668 26.2677 20.9997 26.1999 21.1207C25.2958 21.021 24.526 21.2257 24.062 22.768C23.9224 23.2321 23.8133 23.6987 23.6192 24.1309C22.5755 26.455 20.2448 28.0717 17.5444 28.0717C14.844 28.0717 12.5146 26.455 11.4696 24.1309C11.2754 23.6987 11.1664 23.2321 11.0268 22.768C10.5628 21.2244 9.79296 21.021 8.88885 21.1207C8.81971 20.9997 8.75722 20.8668 8.69872 20.7285C8.70404 20.7232 8.70936 20.7165 8.716 20.7099C8.86625 20.5689 9.04973 20.4466 9.24916 20.3456C9.64937 20.1435 10.1147 20.0251 10.5907 19.9733C10.116 19.9148 9.61879 19.9188 9.12551 20.0344C8.92209 20.0823 8.71866 20.1528 8.52322 20.2485C8.47668 20.0996 8.43413 19.9467 8.39558 19.7858C8.41419 19.7765 8.43147 19.7659 8.45009 19.7566C8.85827 19.5691 9.32628 19.4654 9.80493 19.4308C9.3316 19.355 8.83567 19.3431 8.3384 19.4414C8.33309 19.4414 8.3291 19.4441 8.32378 19.4454C8.28655 19.2473 8.25331 19.0452 8.22805 18.8352C8.1988 18.5573 8.17886 18.29 8.16423 18.0281C5.86672 17.249 4.33372 16.2292 3.10121 15.4394C2.38456 14.9807 1.61607 14.417 1.05898 13.8532C0.949953 13.6365 0.969896 13.5195 0.987181 13.4756C1.0377 13.3493 1.36744 12.9358 3.50274 12.9358C4.29915 12.9358 5.44525 12.8441 6.38393 12.408C8.33176 11.5039 8.94602 9.70762 9.48982 8.12011C9.73579 7.40214 9.96713 6.72406 10.3022 6.18691C10.3142 6.16829 10.3261 6.14835 10.3368 6.12974C11.1172 4.75363 12.2487 3.64609 13.6235 2.9095C14.4837 4.77756 15.9303 5.88244 17.5457 5.88244C19.1612 5.88244 20.6064 4.77889 21.468 2.9095C22.8427 3.64609 23.9742 4.75496 24.7547 6.12974C24.7653 6.14968 24.7773 6.16829 24.7892 6.18824C25.123 6.72539 25.3556 7.40214 25.6016 8.12277C26.1441 9.70762 26.7597 11.5039 28.7062 12.4093C29.6449 12.8454 30.7909 12.9372 31.5874 12.9372C33.7213 12.9372 34.0524 13.3507 34.1029 13.477C34.1202 13.5222 34.1401 13.6392 34.0311 13.8546L34.0298 13.8532ZM10.7662 15.3078C12.7247 14.8065 14.9304 13.719 16.2999 12.9784C15.7189 12.5436 14.9996 12.2843 14.2178 12.2843C12.4495 12.2843 10.9922 13.602 10.7662 15.3078ZM24.3598 15.7705C24.3598 13.8453 22.7989 12.2843 20.8736 12.2843C20.032 12.2843 19.2595 12.5822 18.6572 13.0808C17.8981 13.7096 17.1163 14.1617 16.4993 14.5061C16.6961 14.8757 16.8118 15.2958 16.8118 15.7439C16.8118 16.2997 16.6389 16.8142 16.3464 17.2383C16.3438 17.2423 16.3424 17.2463 16.3398 17.249C16.0327 17.7037 15.7694 17.9244 15.574 18.3033C15.3399 18.7554 15.328 19.1277 15.4264 19.4282C15.5407 19.7765 15.8505 20.069 16.1829 20.1182C16.8105 20.2073 17.5803 19.6861 18.2477 18.7221C18.3528 18.5706 18.5589 18.5333 18.7104 18.6384C18.862 18.7434 18.8992 18.9495 18.7942 19.1011C18.0403 20.19 17.1535 20.795 16.3252 20.795C16.2454 20.795 16.1656 20.7896 16.0872 20.7777C15.5048 20.6939 14.9956 20.2764 14.7948 19.6901C14.6379 19.2314 14.6539 18.7647 14.8108 18.302C14.6074 18.3525 14.3946 18.3818 14.1752 18.3818C12.98 18.3818 11.9735 17.5867 11.649 16.4978C11.3619 16.5775 11.0986 16.6414 10.858 16.6932C11.1571 17.7848 11.9721 18.661 13.0265 19.0452C12.6542 19.7539 12.4415 20.561 12.4415 21.4172C12.4415 24.2359 14.727 26.5214 17.5457 26.5214C20.3644 26.5214 22.65 24.2359 22.65 21.4172C22.65 20.561 22.4386 19.7539 22.0649 19.0452C23.4025 18.5573 24.3598 17.2782 24.3598 15.7731V15.7705ZM21.7179 15.7851C21.7179 16.5217 21.2978 17.1173 20.7792 17.1173C20.2607 17.1173 19.8406 16.5204 19.8406 15.7851C19.8406 15.0499 20.2607 14.4529 20.7792 14.4529C21.2978 14.4529 21.7179 15.0499 21.7179 15.7851Z" fill="#2A4CFF"/>
</g>
<defs>
<clipPath id="clip0_946_1736">
<rect width="34.553" height="27.3799" fill="white" transform="translate(0.269531 0.691772)"/>
</clipPath>
</defs>
</svg>
